<svg height="24" width="24" xmlns="http://www.w3.org/2000/svg" viewBox="0 0 24 24"><path d="m17.601 11.777 -5.155 2.397 0.01 8.596L22.36 12.485l-4.078 -1.022zm-0.597 5.092 -0.279 0.689 -2.278 -0.42 0.235 -0.602a6.624 6.624 0 0 0 0.633 -0.532 7.837 7.837 0 0 0 0.777 -0.821 7.991 7.991 0 0 0 0.591 -0.842 5.419 5.419 0 0 0 0.446 -0.842l0.659 0.118q-0.439 1.047 -1.423 2.083 -0.623 0.639 -0.968 0.874zM5.7 11.453l-3.971 1.02L11.553 22.781V14.174l-5.154 -2.397zm0.898 2.384a1.346 1.346 0 0 1 1.138 0.319 2.487 2.487 0 0 1 0.526 0.665l-0.613 0.125a1.338 1.338 0 0 0 -0.253 -0.346q-0.243 -0.229 -0.528 -0.181l-0.023 0.004a0.303 0.303 0 0 0 -0.242 0.209c-0.04 0.111 -0.011 0.26 0.084 0.439q0.191 0.356 0.507 0.423a1.115 1.115 0 0 0 0.401 -0.01l0.088 -0.016 0.271 0.507q-0.3 0.067 -0.386 0.154 -0.15 0.147 0.02 0.465a0.799 0.799 0 0 0 0.285 0.314 0.488 0.488 0 0 0 0.346 0.072l0.019 -0.004q0.223 -0.045 0.238 -0.223c0.012 -0.12 -0.031 -0.269 -0.129 -0.446l0.58 -0.119a2.308 2.308 0 0 1 0.192 0.526 0.935 0.935 0 0 1 -0.03 0.44 0.549 0.549 0 0 1 -0.186 0.254 0.918 0.918 0 0 1 -0.376 0.152l-0.056 0.01a1.311 1.311 0 0 1 -0.82 -0.127 1.509 1.509 0 0 1 -0.662 -0.661q-0.17 -0.318 -0.122 -0.571a0.394 0.394 0 0 1 0.118 -0.232h-0.003q-0.086 0.015 -0.33 -0.117a1.505 1.505 0 0 1 -0.605 -0.637q-0.246 -0.458 -0.154 -0.862 0.092 -0.405 0.641 -0.516zM1.275 11.666l5.099 -5.452a0.334 0.334 0 0 1 0.067 0h0.007q0.147 0.016 0.133 0.174a0.907 0.907 0 0 1 -0.154 0.38 1.846 1.846 0 0 1 -0.456 0.488q-0.183 0.138 -0.705 0.446 -0.6 0.352 -0.916 0.692a4.338 4.338 0 0 0 -0.54 0.679l1.543 0.176 0.384 -0.608 -0.983 -0.111a1.707 1.707 0 0 1 0.223 -0.18q0.112 -0.075 0.396 -0.24l0.301 -0.176a4.358 4.358 0 0 0 0.605 -0.411 2.881 2.881 0 0 0 0.586 -0.676q0.321 -0.508 0.304 -0.842c-0.009 -0.185 -0.099 -0.302 -0.266 -0.352l3.741 -3.992 -4.786 8.418 -0.268 0.472zm17.214 -3.374q-0.179 -0.256 -0.176 -0.399c0 -0.095 0.056 -0.15 0.167 -0.162h0.027a0.557 0.557 0 0 1 0.324 0.105 1.399 1.399 0 0 1 0.367 0.377q0.173 0.247 0.174 0.394c0 0.098 -0.056 0.153 -0.164 0.167h-0.028a0.551 0.551 0 0 1 -0.326 -0.111 1.396 1.396 0 0 1 -0.365 -0.37zm-5.129 -6.634 3.935 4.202h-0.056c-0.018 0 -0.046 0 -0.069 0.005q-0.367 0.042 -0.39 0.322 -0.023 0.28 0.236 0.644a2.521 2.521 0 0 0 0.299 0.346 1.777 1.777 0 0 0 0.476 0.323q-0.099 0.135 -0.033 0.374a1.748 1.748 0 0 0 0.263 0.52 2.584 2.584 0 0 0 0.714 0.694q0.38 0.247 0.753 0.231 0.038 0 0.076 -0.006 0.411 -0.046 0.433 -0.369a0.755 0.755 0 0 0 -0.022 -0.227l2.751 2.938 -4.292 -1.075 -0.286 -0.502zm4.604 4.918 0.115 0.123c0.021 0.027 0.042 0.056 0.064 0.084 0.085 0.121 0.128 0.223 0.128 0.306 0 0.083 -0.048 0.13 -0.147 0.142h-0.024a0.485 0.485 0 0 1 -0.285 -0.091 1.059 1.059 0 0 1 -0.29 -0.288c-0.093 -0.133 -0.138 -0.239 -0.135 -0.319 0.003 -0.08 0.052 -0.127 0.149 -0.138h0.025a0.481 0.481 0 0 1 0.281 0.088 0.898 0.898 0 0 1 0.119 0.094zM11.999 1.219 6.443 10.829l5.556 2.58 5.56 -2.58zm-0.056 9.772q-0.822 0 -1.152 -0.575 -0.331 -0.575 -0.331 -1.64 0 -1.065 0.331 -1.643 0.331 -0.578 1.152 -0.579 0.822 0 1.152 0.578 0.331 0.578 0.331 1.643 0 1.065 -0.331 1.64 -0.331 0.575 -1.152 0.576zm0.494 -3.366q0.117 0.373 0.117 1.151 0 0.741 -0.117 1.134 -0.117 0.393 -0.494 0.39 -0.377 0 -0.498 -0.39 -0.122 -0.39 -0.122 -1.134 0 -0.777 0.122 -1.151t0.498 -0.373q0.376 -0.001 0.493 0.373z"/></svg>
