<svg width="24" height="24" viewBox="0 0 24 24" xmlns="http://www.w3.org/2000/svg"><path style="stroke-width:.68752" d="m3.877 1.641.973 2.646.456.27 3.368 1.981 4.871-3.36-9.668-1.537zm-.635.058L2.147 6.713a.23.23 0 0 0 .026.038l.003.004c.044.051.095.054.15.007a.624.624 0 0 0 .155-.236 1.269 1.269 0 0 0 .098-.448 6.093 6.093 0 0 0-.023-.573 2.807 2.807 0 0 1 .034-.789 2.982 2.982 0 0 1 .174-.57l.702.804-.194.454-.447-.513a1.174 1.174 0 0 0-.015.196c.001.062.007.168.019.318l.018.239a2.996 2.996 0 0 1 .003.503 1.981 1.981 0 0 1-.153.596c-.108.253-.228.42-.358.501-.108.067-.209.062-.303-.013l-.799 3.675 2.896-5.994.162-.335L3.242 1.7zM8.37 2.936a1.037 1.037 0 0 1 .632.117.901.901 0 0 1 .392.415l.016.035a.631.631 0 0 1 .061.272.377.377 0 0 1-.071.204.643.643 0 0 1-.237.189 1.587 1.587 0 0 1-.373.097l-.159-.375a.548.548 0 0 0 .303-.101c.063-.052.074-.126.033-.222l-.005-.013a.335.335 0 0 0-.176-.168.549.549 0 0 0-.289-.039c-.164.018-.255.075-.271.17-.01.055.011.148.064.278l-.393.044-.025-.056a.767.767 0 0 0-.151-.231c-.107-.102-.253-.142-.437-.122-.138.016-.234.058-.281.124a.208.208 0 0 0-.024.218l.006.015c.056.12.159.196.308.228a.92.92 0 0 0 .294.008l.168.396a1.71 1.71 0 0 1-.582-.038.926.926 0 0 1-.625-.52l-.017-.039c-.101-.236-.087-.424.042-.564.129-.14.311-.223.548-.25a1.035 1.035 0 0 1 .597.094c.113.058.178.105.195.141l.001.002a.271.271 0 0 1 .085-.157c.083-.084.207-.135.371-.154zm5.521.755-4.869 3.35.656 3.853.088.508 1.361 1.197 1.202-1.222 1.562-7.686zM4.786 4.949l-3.27 6.897 7.609-.605-.71-4.154L4.786 4.95zm6.695 2.067 1.127 1.126-.281.427-.795-.794c.001.191-.038.487-.117.889-.135.641-.342 1.18-.623 1.618l-.324-.327a3.726 3.726 0 0 0 .303-.581 5.494 5.494 0 0 0 .246-.663 5.388 5.388 0 0 0 .162-.76 4.554 4.554 0 0 0 .054-.566l.249-.368zm-5.12.554c.255.015.477.158.664.429.214.31.255.603.124.877s-.397.55-.799.827c-.402.277-.755.428-1.059.454-.304.026-.563-.116-.777-.426-.214-.31-.254-.603-.122-.878s.399-.551.801-.828c.402-.277.754-.428 1.057-.453a.84.84 0 0 1 .112-.002zm-.016.546a.51.51 0 0 0-.127.023c-.179.056-.409.18-.689.374-.293.202-.494.375-.604.518-.109.143-.115.286-.017.428.098.142.232.186.404.133h.001c.171-.053.404-.181.697-.383.28-.193.479-.363.596-.509.118-.146.127-.29.028-.432a.32.32 0 0 0-.289-.153zm2.98 3.716-.396.034-6.634.578 3.914.587-.022-.032a.222.222 0 0 1-.024-.041c-.08-.149-.07-.265.03-.346.099-.082.252-.121.457-.118a1.733 1.733 0 0 1 .312.034 1.221 1.221 0 0 1 .369.143c.025-.073.092-.128.199-.165a1.202 1.202 0 0 1 .397-.054 1.776 1.776 0 0 1 .671.133.874.874 0 0 1 .451.381c.09.167.076.297-.04.389a.519.519 0 0 1-.137.077l1.649.247a1.128 1.128 0 0 1 .19-.627l-1.386-1.22zm-1.272.924-.001.001c-.143-.001-.241.018-.295.056-.054.037-.063.09-.026.158l.01.015a.383.383 0 0 0 .186.142.962.962 0 0 0 .357.06c.138.001.235-.018.291-.055.055-.038.065-.091.031-.158l-.011-.016a.379.379 0 0 0-.19-.141.96.96 0 0 0-.352-.062zm-1.192.017c-.111-.001-.189.015-.233.048-.044.033-.051.079-.02.138l.01.014a.331.331 0 0 0 .16.125.617.617 0 0 0 .1.03l.114.017c.023.002.048.002.072.003.102.001.176-.015.223-.047.047-.032.055-.078.023-.138l-.009-.014a.333.333 0 0 0-.163-.126.728.728 0 0 0-.276-.052z"/><path d="m19.258 15.522-3.544-1.648.007-5.91 6.81 7.071-2.804.703zm-.41-3.501-.192-.474-1.566.289.161.414a4.554 4.554 0 0 1 .435.366 5.388 5.388 0 0 1 .534.565 5.494 5.494 0 0 1 .406.579 3.726 3.726 0 0 1 .307.579l.453-.081q-.302-.72-.978-1.432-.429-.44-.665-.601Zm-7.771 3.723-2.73-.701 6.754-7.087v5.918l-3.543 1.648zm.617-1.639a.926.926 0 0 0 .782-.219 1.71 1.71 0 0 0 .362-.457l-.422-.086a.92.92 0 0 1-.174.238q-.167.157-.363.124l-.016-.003a.208.208 0 0 1-.166-.143c-.028-.077-.008-.179.058-.302q.131-.245.348-.291a.767.767 0 0 1 .276.007l.06.011.187-.349q-.206-.046-.265-.106-.103-.101.014-.32a.549.549 0 0 1 .196-.216.335.335 0 0 1 .238-.049l.013.003q.153.031.164.153c.008.083-.021.185-.089.307l.399.082a1.587 1.587 0 0 0 .132-.362.643.643 0 0 0-.021-.302.377.377 0 0 0-.128-.174.631.631 0 0 0-.259-.104l-.038-.007a.901.901 0 0 0-.564.087 1.037 1.037 0 0 0-.455.454q-.117.219-.084.393a.271.271 0 0 0 .081.159h-.002q-.059-.01-.227.08a1.035 1.035 0 0 0-.416.438q-.169.315-.106.593.063.278.441.354zm-3.66 1.493 3.506 3.748a.23.23 0 0 0 .046 0h.005q.101-.011.092-.12a.624.624 0 0 0-.106-.261 1.269 1.269 0 0 0-.314-.335q-.126-.095-.485-.307-.412-.242-.63-.476a2.982 2.982 0 0 1-.371-.467l1.06-.121.264.418-.676.077a1.174 1.174 0 0 0 .153.123q.077.052.272.165l.207.121a2.996 2.996 0 0 1 .416.283 1.981 1.981 0 0 1 .403.465q.22.35.209.579c-.006.127-.068.207-.183.242l2.572 2.745-3.29-5.787-.184-.324zm11.835 2.32q-.123.176-.121.274c0 .065.038.103.115.111h.018a.383.383 0 0 0 .223-.072.962.962 0 0 0 .253-.259q.119-.17.12-.271c0-.067-.038-.105-.113-.115h-.019a.379.379 0 0 0-.224.077.96.96 0 0 0-.251.254zm-3.526 4.561 2.705-2.889h-.038c-.012 0-.031 0-.047-.003q-.252-.029-.268-.221-.016-.192.162-.443a1.733 1.733 0 0 1 .205-.238 1.221 1.221 0 0 1 .327-.222q-.068-.093-.023-.257a1.202 1.202 0 0 1 .181-.358 1.776 1.776 0 0 1 .491-.477q.261-.17.518-.159.026 0 .052.004.283.032.297.254a.519.519 0 0 1-.015.156l1.891-2.02-2.951.739-.197.345zm3.165-3.382.079-.084c.015-.018.029-.038.044-.058.058-.084.088-.153.088-.21 0-.057-.033-.09-.101-.097h-.017a.333.333 0 0 0-.196.063.728.728 0 0 0-.199.198c-.064.091-.095.164-.093.22.002.055.036.087.103.095h.017a.331.331 0 0 0 .194-.061.617.617 0 0 0 .082-.065zm-4.101 3.684-3.82-6.607 3.82-1.774 3.822 1.774zm-.038-6.718q-.565 0-.792.396-.227.396-.227 1.128 0 .732.227 1.129t.792.398q.565 0 .792-.397.227-.397.227-1.129t-.227-1.128q-.227-.396-.792-.396zm.34 2.314q.08-.257.08-.791 0-.51-.08-.78t-.34-.268q-.259 0-.343.268-.084.268-.084.78 0 .534.084.791t.343.257q.258 0 .339-.256z" style="stroke-width:.68752"/></svg>
