<svg style="height:512px;width:512px" viewBox="0 0 512 512" xmlns="http://www.w3.org/2000/svg"><path style="stroke-width:.68752" d="m82.7 35 20.75 56.438 9.736 5.75 71.859 42.263 103.92-71.676L82.699 35zm-13.542 1.236L45.795 143.203a4.905 4.905 0 0 0 .557.807l.06.088c.947 1.095 2.017 1.148 3.21.16a13.31 13.31 0 0 0 3.298-5.028 27.072 27.072 0 0 0 2.092-9.566c.09-2.24-.073-6.317-.489-12.228-.498-6.782-.255-12.392.729-16.83a63.62 63.62 0 0 1 3.703-12.17l14.973 17.156-4.143 9.691-9.531-10.937a25.036 25.036 0 0 0-.31 4.187c.013 1.316.146 3.575.396 6.78l.387 5.097a63.922 63.922 0 0 1 .068 10.727 42.263 42.263 0 0 1-3.274 12.707c-2.312 5.403-4.855 8.965-7.628 10.685-2.31 1.434-4.462 1.32-6.465-.287l-17.05 78.404 61.78-127.88 3.465-7.157-22.465-61.373zM178.57 62.641a22.133 22.133 0 0 1 13.49 2.494 19.23 19.23 0 0 1 8.356 8.847l.344.756a13.458 13.458 0 0 1 1.303 5.807 8.045 8.045 0 0 1-1.516 4.353 13.72 13.72 0 0 1-5.06 4.026 33.858 33.858 0 0 1-7.956 2.06l-3.392-8c2.95-.287 5.104-1.007 6.457-2.158 1.347-1.108 1.585-2.687.71-4.732l-.115-.268a7.154 7.154 0 0 0-3.752-3.58 11.717 11.717 0 0 0-6.166-.834c-3.508.394-5.437 1.607-5.787 3.635-.223 1.174.23 3.152 1.356 5.937l-8.387.948-.533-1.19a16.353 16.353 0 0 0-3.229-4.926c-2.29-2.168-5.398-3.034-9.328-2.595-2.954.339-4.992 1.23-6.004 2.642a4.44 4.44 0 0 0-.504 4.658l.137.313c1.196 2.56 3.387 4.182 6.576 4.87a19.623 19.623 0 0 0 6.278.171l3.591 8.447a36.474 36.474 0 0 1-12.412-.814 19.746 19.746 0 0 1-13.324-11.084l-.369-.838c-2.156-5.036-1.86-9.046.887-12.033 2.747-2.988 6.644-4.763 11.693-5.324a22.076 22.076 0 0 1 12.736 2.003c2.412 1.23 3.798 2.234 4.16 3.01l.028.04a5.772 5.772 0 0 1 1.816-3.358c1.772-1.791 4.41-2.885 7.916-3.283zm117.772 16.117-103.87 71.463 13.989 82.207 1.879 10.843 29.043 25.543 25.64-26.08 33.319-163.976zm-194.237 26.847L32.338 252.721l162.334-12.907-15.14-88.613-77.427-45.596zm142.819 44.096 24.04 24.012-5.995 9.103-16.96-16.94c.028 4.074-.801 10.394-2.488 18.96-2.874 13.67-7.304 25.178-13.292 34.525l-6.913-6.98a79.482 79.482 0 0 0 6.455-12.4 117.207 117.207 0 0 0 5.245-14.145 114.942 114.942 0 0 0 3.447-16.213 97.15 97.15 0 0 0 1.154-12.08l5.307-7.842zm-109.23 11.82c5.449.315 10.17 3.366 14.161 9.153 4.558 6.617 5.438 12.854 2.643 18.709-2.795 5.854-8.478 11.737-17.049 17.648-8.57 5.911-16.1 9.141-22.588 9.69-6.488.548-12.012-2.484-16.574-9.098-4.557-6.617-5.429-12.862-2.611-18.732 2.818-5.87 8.514-11.761 17.084-17.672 8.57-5.911 16.088-9.134 22.554-9.666.809-.067 1.6-.077 2.38-.032zm-.34 11.643c-.847.033-1.746.197-2.7.494-3.815 1.188-8.719 3.85-14.709 7.98-6.255 4.315-10.549 7.998-12.88 11.05-2.332 3.051-2.452 6.093-.36 9.126 2.081 3.028 4.951 3.975 8.608 2.844l.015.01c3.656-1.131 8.612-3.854 14.867-8.168 5.968-4.116 10.21-7.737 12.723-10.861 2.513-3.125 2.712-6.195.598-9.213-1.57-2.275-3.624-3.362-6.162-3.262zm63.582 79.283-8.44.727-141.521 12.32 83.498 12.522-.465-.672c-.149-.215-.38-.553-.51-.871-1.7-3.185-1.488-5.647.635-7.389 2.122-1.742 5.369-2.582 9.742-2.52a36.973 36.973 0 0 1 6.662.729 26.058 26.058 0 0 1 7.863 3.049c.54-1.551 1.954-2.721 4.243-3.512a25.633 25.633 0 0 1 8.47-1.154 37.897 37.897 0 0 1 14.323 2.836c4.095 1.684 7.116 4.073 9.064 7.166.21.305.397.628.559.967 1.91 3.568 1.626 6.332-.854 8.294a11.079 11.079 0 0 1-2.928 1.633l35.172 5.27a24.073 24.073 0 0 1 4.063-13.373l-29.576-26.022zm-27.14 19.711-.019.014c-3.052-.02-5.149.38-6.287 1.197-1.15.794-1.346 1.922-.558 3.365l.222.323a8.176 8.176 0 0 0 3.97 3.035 20.522 20.522 0 0 0 7.616 1.29c2.952.018 5.017-.374 6.2-1.177 1.184-.817 1.38-1.944.654-3.371l-.233-.336a8.078 8.078 0 0 0-4.06-3.008 20.481 20.481 0 0 0-7.504-1.332zm-25.437.373c-2.372-.012-4.034.33-4.98 1.031-.946.703-1.092 1.686-.418 2.95l.205.297a7.056 7.056 0 0 0 3.406 2.666 13.164 13.164 0 0 0 2.127.648l2.438.365c.498.033 1.026.047 1.539.07 2.173.012 3.755-.316 4.758-1.007 1.002-.692 1.17-1.67.488-2.947l-.201-.291a7.113 7.113 0 0 0-3.475-2.678 15.535 15.535 0 0 0-5.887-1.104z"/><path d="m410.835 331.14-75.613-35.158.146-126.078 145.27 150.853-59.81 14.995zm-8.756-74.682-4.089-10.106-33.416 6.157 3.443 8.822a97.15 97.15 0 0 1 9.288 7.81 114.942 114.942 0 0 1 11.39 12.043 117.207 117.207 0 0 1 8.666 12.346 79.482 79.482 0 0 1 6.541 12.355l9.672-1.726q-6.442-15.355-20.873-30.546-9.142-9.378-14.194-12.813Zm-165.791 79.433-58.24-14.963 144.091-151.187v126.242l-75.59 35.158zm13.164-34.962a19.746 19.746 0 0 0 16.688-4.676 36.474 36.474 0 0 0 7.718-9.755l-8.994-1.84a19.623 19.623 0 0 1-3.704 5.07q-3.565 3.352-7.743 2.65l-.335-.066a4.44 4.44 0 0 1-3.549-3.058c-.588-1.635-.163-3.819 1.235-6.443q2.805-5.225 7.432-6.206a16.353 16.353 0 0 1 5.888.14l1.283.236 3.982-7.44q-4.4-.982-5.659-2.257-2.207-2.159.295-6.827a11.717 11.717 0 0 1 4.187-4.604 7.154 7.154 0 0 1 5.077-1.054l.286.057q3.27.663 3.492 3.27c.18 1.767-.45 3.95-1.89 6.541l8.512 1.75a33.858 33.858 0 0 0 2.82-7.718 13.72 13.72 0 0 0-.44-6.451 8.045 8.045 0 0 0-2.723-3.72 13.458 13.458 0 0 0-5.519-2.224l-.818-.147a19.23 19.23 0 0 0-12.027 1.856 22.133 22.133 0 0 0-9.714 9.688q-2.493 4.669-1.79 8.381a5.772 5.772 0 0 0 1.733 3.401h-.049q-1.267-.213-4.84 1.717a22.076 22.076 0 0 0-8.88 9.346q-3.606 6.713-2.256 12.649 1.349 5.936 9.402 7.562zm-78.075 31.847 74.788 79.965a4.905 4.905 0 0 0 .981 0h.106q2.159-.238 1.954-2.551a13.31 13.31 0 0 0-2.265-5.569 27.072 27.072 0 0 0-6.688-7.154q-2.69-2.02-10.343-6.54-8.797-5.16-13.44-10.155a63.62 63.62 0 0 1-7.916-9.96l22.624-2.584 5.625 8.913-14.415 1.635a25.036 25.036 0 0 0 3.27 2.633q1.636 1.103 5.806 3.523l4.415 2.577a63.922 63.922 0 0 1 8.871 6.033 42.263 42.263 0 0 1 8.601 9.91q4.703 7.457 4.465 12.346c-.13 2.715-1.447 4.423-3.908 5.16l54.863 58.55-70.194-123.462-3.924-6.917zm252.483 49.483q-2.624 3.753-2.583 5.855c0 1.397.818 2.199 2.453 2.37h.392a8.176 8.176 0 0 0 4.75-1.545 20.522 20.522 0 0 0 5.388-5.535q2.535-3.63 2.551-5.773c0-1.439-.817-2.24-2.403-2.452h-.409a8.078 8.078 0 0 0-4.783 1.635 20.481 20.481 0 0 0-5.356 5.42zm-75.221 97.298 57.716-61.625h-.818c-.261 0-.67 0-1.006-.073q-5.38-.614-5.723-4.718-.343-4.105 3.459-9.452a36.973 36.973 0 0 1 4.383-5.07 26.058 26.058 0 0 1 6.974-4.741q-1.456-1.987-.483-5.487a25.633 25.633 0 0 1 3.86-7.628 37.897 37.897 0 0 1 10.465-10.18q5.568-3.622 11.046-3.393.557 0 1.112.09 6.034.68 6.345 5.413a11.079 11.079 0 0 1-.318 3.336L486 332.931l-62.958 15.773-4.194 7.358zm67.528-72.14 1.684-1.798c.31-.392.621-.818.932-1.227 1.243-1.782 1.872-3.27 1.872-4.489 0-1.217-.71-1.912-2.15-2.076h-.352a7.113 7.113 0 0 0-4.178 1.34 15.535 15.535 0 0 0-4.251 4.22c-1.358 1.946-2.02 3.508-1.98 4.685.042 1.177.77 1.856 2.192 2.019h.36a7.056 7.056 0 0 0 4.129-1.292 13.164 13.164 0 0 0 1.741-1.382zM328.679 486l-81.492-140.96 81.493-37.848 81.543 37.848zm-.818-143.323q-12.051 0-16.899 8.438-4.85 8.438-4.85 24.055 0 15.617 4.85 24.096 4.848 8.478 16.9 8.487 12.052 0 16.9-8.479 4.849-8.479 4.849-24.095 0-15.617-4.848-24.055-4.85-8.438-16.901-8.447zm7.245 49.37q1.717-5.479 1.717-16.877 0-10.874-1.717-16.638-1.717-5.764-7.244-5.724-5.528 0-7.31 5.724-1.783 5.723-1.783 16.638 0 11.398 1.783 16.876 1.783 5.478 7.31 5.478 5.51.008 7.228-5.47z" style="stroke-width:.68752"/></svg>
