<svg xmlns="http://www.w3.org/2000/svg" style="height:512px;width:512px" viewBox="0 0 33.28 33.28" xml:space="preserve"><path d="M29.12 6.4h-8V3.84a2.568 2.568 0 0 0-2.56-2.56h-3.84a2.568 2.568 0 0 0-2.56 2.56V6.4h-8a.984.984 0 0 0-.96.96v1.92c0 .512.448.96.96.96h24.96c.512 0 .96-.448.96-.96V7.36a.984.984 0 0 0-.96-.96zm-14.4-1.92c0-.384.256-.64.64-.64h2.56c.384 0 .64.256.64.64V6.4h-3.84V4.48zm11.84 8.32H6.72a.984.984 0 0 0-.96.96V28.8c0 1.792 1.408 3.2 3.2 3.2h15.36c1.792 0 3.2-1.408 3.2-3.2V13.76a.984.984 0 0 0-.96-.96zM14.72 26.88c0 .384-.256.64-.64.64H12.8c-.384 0-.64-.256-.64-.64v-8.96c0-.384.256-.64.64-.64h1.28c.384 0 .64.256.64.64v8.96zm6.4 0c0 .384-.256.64-.64.64H19.2c-.384 0-.64-.256-.64-.64v-8.96c0-.384.256-.64.64-.64h1.28c.384 0 .64.256.64.64v8.96z"/></svg>
