<svg fill="none" viewBox="0 0 512 512" style="height:512px;width:512px" xmlns="http://www.w3.org/2000/svg"><path xmlns="http://www.w3.org/2000/svg" d="M256 85.333a170.667 170.667 0 1 0 0 341.333 170.667 170.667 0 0 0 0 -341.333ZM42.667 256C42.667 138.176 138.176 42.667 256 42.667s213.333 95.509 213.333 213.333 -95.509 213.333 -213.333 213.333S42.667 373.824 42.667 256Zm106.667 0a21.333 21.333 0 0 1 21.333 -21.333h170.667a21.333 21.333 0 1 1 0 42.667H170.667a21.333 21.333 0 0 1 -21.333 -21.333Z" fill="#0D0D0D"/></svg>
