<svg style="height:512px;width:512px" version="1.1" id="_x32_" xmlns="http://www.w3.org/2000/svg" viewBox="0 0 512 512" xml:space="preserve"><style>.st0{fill:#000}</style><path class="st0" d="M359.77 224.004H152.228c-5.928 0-10.732 4.804-10.732 10.73v42.535c0 5.926 4.805 10.734 10.732 10.734H359.77c5.928 0 10.732-4.809 10.732-10.734v-42.535c0-5.926-4.805-10.73-10.732-10.73z"/><path class="st0" d="M256 0C114.613 0 0 114.617 0 256c0 141.387 114.613 256 256 256 141.383 0 256-114.613 256-256C512 114.617 397.383 0 256 0zm0 448c-105.871 0-192-86.129-192-192 0-105.867 86.129-192 192-192 105.867 0 192 86.133 192 192 0 105.871-86.133 192-192 192z"/></svg>
